#!OML:ASF I:\Actors\actors\Patient Classification 2\Patient 1\Session 1\actor1.ASF
:FULLY-SPECIFIED
:DEGREES
101
root -0.652119 18.7593 4.67779 4.76666 -2.36568 -2.43056
lowerback -2.76601 1.43471 -0.988106
upperback -3.37976 1.93249 0.484555
thorax -1.9669 0.994932 1.06846
lowerneck -9.08822 -3.70422 -2.04895
upperneck 24.7098 -5.87031 4.08795
head 9.45457 -2.50083 1.11993
rclavicle -1.85118e-014 -5.76476e-015
rhumerus -50.9209 -0.390276 -87.5015
rradius 43.7369
rwrist 14.5139
rhand -12.3399 -37.7638
rfingers 7.12502
rthumb 13.7294 -67.2908
lclavicle -1.85118e-014 -5.76476e-015
lhumerus -43.0636 4.63479 87.0735
lradius 37.3698
lwrist -9.31557
lhand -10.9583 -31.381
lfingers 7.12502
lthumb 15.0606 -1.94878
rfemur 2.76842 -10.3031 15.6501
rtibia 7.95139e-015
rfoot -7.8907 -0.823026
rtoes -4.49354
lfemur -7.70507 -7.53234 -12.0685
ltibia 21.451
lfoot -22.8881 12.2031
ltoes -54.4489
102
root -0.652159 18.7603 4.67826 4.76733 -2.35687 -2.43812
lowerback -2.76089 1.4371 -0.991898
upperback -3.38002 1.93572 0.48714
thorax -1.97034 0.996691 1.0731
lowerneck -9.06514 -3.70019 -2.02615
upperneck 24.684 -5.85491 4.03794
head 9.43812 -2.49763 1.10107
rclavicle 1.40392e-014 -3.18055e-015
rhumerus -50.929 -0.400113 -87.4992
rradius 43.7429
rwrist 14.4964
rhand -12.4008 -37.747
rfingers 7.12502
rthumb 13.6707 -67.2781
lclavicle 1.40392e-014 -3.18055e-015
lhumerus -43.0604 4.61373 87.1002
lradius 37.3797
lwrist -9.31543
lhand -10.9847 -31.3384
lfingers 7.12502
lthumb 15.0353 -1.9043
rfemur 2.76745 -10.3111 15.6621
rtibia 9.54166e-015
rfoot -7.88679 -0.835457
rtoes -4.59893
lfemur -7.7011 -7.49423 -12.058
ltibia 21.4467
lfoot -22.8708 12.1907
ltoes -54.4735
103
root -0.652066 18.7614 4.67814 4.7758 -2.36014 -2.40802
lowerback -2.74039 1.45203 -1.00446
upperback -3.38993 1.95516 0.45328
thorax -1.99177 1.00642 1.04482
lowerneck -9.03923 -3.70248 -2.03734
upperneck 24.6495 -5.86343 4.0748
head 9.42291 -2.49964 1.11523
rclavicle -1.02001e-014 1.0138e-014
rhumerus -50.9476 -0.502686 -87.4852
rradius 43.7466
rwrist 14.5659
rhand -12.4506 -37.6812
rfingers 7.12502
rthumb 13.6228 -67.2154
lclavicle -1.02001e-014 1.0138e-014
lhumerus -43.0629 4.54523 87.1038
lradius 37.3972
lwrist -9.3081
lhand -11.0262 -31.3356
lfingers 7.12502
lthumb 14.9952 -1.89856
rfemur 2.75339 -10.3111 15.6324
rtibia 0
rfoot -7.87023 -0.857537
rtoes -4.70392
lfemur -7.71167 -7.43845 -12.0891
ltibia 21.4425
lfoot -22.8249 12.1859
ltoes -54.525
104
root -0.651701 18.7613 4.67837 4.78401 -2.36673 -2.37699
lowerback -2.73721 1.4575 -1.02836
upperback -3.39191 1.96242 0.431886
thorax -1.99586 1.01033 1.03619
lowerneck -9.05413 -3.70331 -2.13595
upperneck 24.6697 -5.87522 4.18767
head 9.44008 -2.50158 1.16908
rclavicle -5.13113e-015 8.74653e-015
rhumerus -50.9284 -0.580143 -87.4554
rradius 43.7146
rwrist 14.6833
rhand -12.4216 -37.6671
rfingers 7.12502
rthumb 13.6507 -67.1994
lclavicle -5.13113e-015 8.74653e-015
lhumerus -43.0522 4.52235 87.1044
lradius 37.4057
lwrist -9.30684
lhand -11.0686 -31.3798
lfingers 7.12502
lthumb 14.9544 -1.93969
rfemur 2.74644 -10.3082 15.594
rtibia -3.97569e-015
rfoot -7.86975 -0.847646
rtoes -4.57029
lfemur -7.71505 -7.44392 -12.1255
ltibia 21.4325
lfoot -22.8458 12.1898
ltoes -54.5043
105
root -0.650539 18.7599 4.6786 4.79065 -2.36318 -2.37698
lowerback -2.75622 1.45364 -1.01795
upperback -3.37366 1.9573 0.430262
thorax -1.96584 1.00726 1.02952
lowerneck -9.09147 -3.70104 -2.22359
upperneck 24.6818 -5.87254 4.25482
head 9.45627 -2.50039 1.20655
rclavicle 1.15916e-014 -6.75868e-015
rhumerus -50.859 -0.565542 -87.4573
rradius 43.6643
rwrist 14.6708
rhand -12.3812 -37.7397
rfingers 7.12502
rthumb 13.6896 -67.2695
lclavicle 1.15916e-014 -6.75868e-015
lhumerus -42.9192 4.49233 87.1401
lradius 37.2511
lwrist -9.23603
lhand -11.153 -31.4593
lfingers 7.12502
lthumb 14.8731 -2.01315
rfemur 2.73902 -10.3125 15.5887
rtibia 0
rfoot -7.87176 -0.844209
rtoes -4.58559
lfemur -7.71587 -7.51473 -12.1344
ltibia 21.4248
lfoot -22.858 12.251
ltoes -54.5215
106
root -0.649616 18.7591 4.6778 4.81157 -2.35159 -2.39418
lowerback -2.78958 1.45695 -0.982686
upperback -3.35361 1.96133 0.415053
thorax -1.92482 1.00799 0.99555
lowerneck -9.08487 -3.69393 -2.17751
upperneck 24.6387 -5.8641 4.23642
head 9.43746 -2.49493 1.19351
rclavicle 1.2188e-014 6.95746e-015
rhumerus -50.8111 -0.578095 -87.4866
rradius 43.6695
rwrist 14.6137
rhand -12.2818 -37.8386
rfingers 7.12502
rthumb 13.7854 -67.3619
lclavicle 1.2188e-014 6.95746e-015
lhumerus -42.7017 4.37649 87.1917
lradius 36.9674
lwrist -9.11009
lhand -11.2661 -31.4597
lfingers 7.12502
lthumb 14.7641 -2.00555
rfemur 2.71499 -10.3241 15.6115
rtibia 1.11319e-014
rfoot -7.86676 -0.845442
rtoes -4.60743
lfemur -7.75139 -7.50558 -12.1129
ltibia 21.4337
lfoot -22.8427 12.2451
ltoes -54.5517
107
root -0.649063 18.7599 4.67738 4.83179 -2.3604 -2.37405
lowerback -2.78621 1.47169 -0.998262
upperback -3.36803 1.98069 0.38137
thorax -1.94138 1.01774 0.969562
lowerneck -9.03102 -3.67724 -2.06239
upperneck 24.6131 -5.84974 4.19118
head 9.41262 -2.48377 1.16121
rclavicle -2.4289e-014 1.98785e-015
rhumerus -50.835 -0.660425 -87.4888
rradius 43.6723
rwrist 14.6621
rhand -12.1701 -37.8367
rfingers 7.12502
rthumb 13.893 -67.3526
lclavicle -2.4289e-014 1.98785e-015
lhumerus -42.7092 4.3398 87.1888
lradius 36.9775
lwrist -9.13363
lhand -11.262 -31.3947
lfingers 7.12502
lthumb 14.7681 -1.94088
rfemur 2.69163 -10.3187 15.5921
rtibia 7.95139e-016
rfoot -7.85806 -0.843092
rtoes -4.39919
lfemur -7.78926 -7.43611 -12.1297
ltibia 21.456
lfoot -22.8699 12.1718
ltoes -54.5017
108
root -0.648798 18.7609 4.67846 4.83293 -2.38005 -2.37549
lowerback -2.7442 1.47815 -1.003
upperback -3.40231 1.98885 0.372855
thorax -2.00029 1.02228 0.961734
lowerneck -8.95136 -3.66127 -2.02454
upperneck 24.6015 -5.82909 4.17081
head 9.39079 -2.47439 1.15168
rclavicle 4.55341e-014 -2.38542e-015
rhumerus -50.8751 -0.686624 -87.4861
rradius 43.6108
rwrist 14.623
rhand -11.4571 -38.2803
rfingers 7.12502
rthumb 14.5801 -67.7479
lclavicle 4.55341e-014 -2.38542e-015
lhumerus -42.9156 4.43559 87.1555
lradius 37.2376
lwrist -9.26364
lhand -11.2288 -31.3254
lfingers 7.12502
lthumb 14.8001 -1.87384
rfemur 2.68652 -10.2991 15.5933
rtibia -1.66979e-014
rfoot -7.85036 -0.850702
rtoes -4.34797
lfemur -7.79278 -7.42123 -12.133
ltibia 21.4827
lfoot -22.8809 12.1788
ltoes -54.5507
109
root -0.649213 18.7611 4.67962 4.84121 -2.37969 -2.41675
lowerback -2.74922 1.46495 -0.971797
upperback -3.40585 1.97109 0.387509
thorax -2.00011 1.0129 0.95926
lowerneck -8.91319 -3.65728 -2.0655
upperneck 24.5857 -5.81917 4.18617
head 9.37936 -2.47286 1.16568
rclavicle 1.57661e-014 -3.97569e-015
rhumerus -50.8638 -0.630561 -87.5129
rradius 43.554
rwrist 14.4563
rhand -10.0781 -39.1369
rfingers 7.12502
rthumb 15.9084 -68.5035
lclavicle 1.57661e-014 -3.97569e-015
lhumerus -42.9987 4.49844 87.1518
lradius 37.3406
lwrist -9.32262
lhand -11.3156 -31.3306
lfingers 7.12502
lthumb 14.7164 -1.87292
rfemur 2.6787 -10.2961 15.6441
rtibia -9.54166e-015
rfoot -7.85263 -0.853031
rtoes -4.39609
lfemur -7.80559 -7.42986 -12.0866
ltibia 21.5068
lfoot -22.8756 12.2068
ltoes -54.5798
110
root -0.648865 18.7611 4.68006 4.85967 -2.36996 -2.4252
lowerback -2.77275 1.45931 -0.954695
upperback -3.39032 1.96336 0.374177
thorax -1.96965 1.00826 0.936921
lowerneck -8.95871 -3.6603 -2.0662
upperneck 24.5981 -5.82846 4.20526
head 9.39336 -2.47431 1.17044
rclavicle -6.21202e-015 -5.96354e-015
rhumerus -50.8601 -0.561653 -87.5837
rradius 43.6008
rwrist 14.306
rhand -9.33494 -39.5621
rfingers 7.12502
rthumb 16.624 -68.8702
lclavicle -6.21202e-015 -5.96354e-015
lhumerus -42.9786 4.46746 87.1551
lradius 37.3497
lwrist -9.32695
lhand -11.334 -31.367
lfingers 7.12502
lthumb 14.6987 -1.90811
rfemur 2.66071 -10.3064 15.6581
rtibia -3.18055e-015
rfoot -7.86104 -0.859833
rtoes -4.41931
lfemur -7.83323 -7.45592 -12.075
ltibia 21.5225
lfoot -22.92 12.2151
ltoes -54.4935
111
root -0.647423 18.7609 4.68105 4.8765 -2.35225 -2.40791
lowerback -2.76532 1.46133 -0.960241
upperback -3.39546 1.96569 0.346963
thorax -1.97838 1.00926 0.91185
lowerneck -8.9883 -3.64368 -1.9983
upperneck 24.6048 -5.81088 4.178
head 9.39775 -2.46213 1.15101
rclavicle 2.07357e-014 -9.93923e-015
rhumerus -50.9437 -0.435984 -87.7076
rradius 43.7395
rwrist 14.1137
rhand -9.34355 -39.5757
rfingers 7.12502
rthumb 16.6157 -68.8844
lclavicle 2.07357e-014 -9.93923e-015
lhumerus -42.968 4.44387 87.1392
lradius 37.3376
lwrist -9.35165
lhand -11.242 -31.3132
lfingers 7.12502
lthumb 14.7874 -1.86076
rfemur 2.64741 -10.3272 15.6375
rtibia -2.38542e-015
rfoot -7.88588 -0.874965
rtoes -4.52146
lfemur -7.85753 -7.47728 -12.0957
ltibia 21.5306
lfoot -22.9535 12.1873
ltoes -54.4466
112
root -0.646365 18.761 4.68226 4.89124 -2.30486 -2.40158
lowerback -2.74351 1.45294 -0.97969
upperback -3.4106 1.95452 0.342809
thorax -2.00646 1.00426 0.917489
lowerneck -8.98701 -3.60051 -1.92601
upperneck 24.6054 -5.74044 4.08799
head 9.39001 -2.43206 1.11574
rclavicle 9.74045e-015 -7.95139e-016
rhumerus -51.0725 -0.211827 -87.8686
rradius 43.9505
rwrist 13.8401
rhand -10.0442 -39.192
rfingers 7.12502
rthumb 15.9411 -68.556
lclavicle 9.74045e-015 -7.95139e-016
lhumerus -42.9553 4.45441 87.1417
lradius 37.2696
lwrist -9.39819
lhand -11.2095 -31.2658
lfingers 7.12502
lthumb 14.8187 -1.81562
rfemur 2.64882 -10.3764 15.6284
rtibia -9.54166e-015
rfoot -7.92051 -0.877287
rtoes -4.48826
lfemur -7.88693 -7.46232 -12.0964
ltibia 21.5361
lfoot -22.9388 12.0999
ltoes -54.4444
